<svg xmlns="http://www.w3.org/2000/svg" width="200" height="200" viewBox="0 0 200 200"><g transform="translate(-1492 -3)"><rect width="200" height="200" transform="translate(1492 3)" fill="#dee0e1"/><circle cx="34" cy="34" r="34" transform="translate(1558 36)" fill="#b3b6b8"/><path d="M79,0a79,79,0,0,1,79,79c-8.2.008-52.14,0-79,0-25.793,0-61.942.074-79,0A79,79,0,0,1,79,0Z" transform="translate(1513 104)" fill="#b3b6b8"/><g transform="translate(-76 -399)"><g transform="translate(1638 485)"><g transform="translate(0 0)" fill="none" stroke-linejoin="round"><path d="M8,35.148a8,8,0,0,1-8-8V12.635a8,8,0,0,1,8-8h9.734A5.022,5.022,0,0,1,22.74,0H37.86a5.021,5.021,0,0,1,5.006,4.635h9.025a8,8,0,0,1,8,8V27.148a8,8,0,0,1-8,8Z" stroke="none"/><path d="M 51.89130020141602 33.14770126342773 C 55.19977188110352 33.14770126342773 57.89140319824219 30.45606994628906 57.89140319824219 27.1476001739502 L 57.89140319824219 12.63510036468506 C 57.89140319824219 9.326630592346191 55.19977188110352 6.635000705718994 51.89130020141602 6.635000705718994 L 42.86587142944336 6.635000705718994 C 41.82014083862305 6.635000705718994 40.95095062255859 5.829410552978516 40.87163162231445 4.78670072555542 C 40.75277328491211 3.224060535430908 39.43003082275391 2.000000715255737 37.86030197143555 2.000000715255737 L 22.74030113220215 2.000000715255737 C 21.17011070251465 2.000000715255737 19.84697151184082 3.224090576171875 19.72805213928223 4.786760807037354 C 19.64871215820313 5.829450607299805 18.77952194213867 6.635000705718994 17.73382186889648 6.635000705718994 L 8.000102043151855 6.635000705718994 C 4.69163179397583 6.635000705718994 2.000001668930054 9.326630592346191 2.000001668930054 12.63510036468506 L 2.000001668930054 27.1476001739502 C 2.000001668930054 30.45606994628906 4.69163179397583 33.14770126342773 8.000102043151855 33.14770126342773 L 51.89130020141602 33.14770126342773 M 51.89130020141602 35.14770126342773 L 8.000102043151855 35.14770126342773 C 3.582001686096191 35.14770126342773 1.59912110575533e-06 31.56570053100586 1.59912110575533e-06 27.1476001739502 L 1.59912110575533e-06 12.63510036468506 C 1.59912110575533e-06 8.217000961303711 3.582001686096191 4.635000705718994 8.000102043151855 4.635000705718994 L 17.73382186889648 4.635000705718994 C 17.93110084533691 2.0425705909729 20.09738159179688 6.317138740996597e-07 22.74030113220215 6.317138740996597e-07 L 37.86030197143555 6.317138740996597e-07 C 40.50322341918945 6.317138740996597e-07 42.66867065429688 2.0425705909729 42.86587142944336 4.635000705718994 L 51.89130020141602 4.635000705718994 C 56.30940246582031 4.635000705718994 59.89140319824219 8.217000961303711 59.89140319824219 12.63510036468506 L 59.89140319824219 27.1476001739502 C 59.89140319824219 31.56570053100586 56.30940246582031 35.14770126342773 51.89130020141602 35.14770126342773 Z" stroke="none" fill="#fff"/></g><g transform="translate(19.324 9.27)" fill="none" stroke="#fff" stroke-width="2"><circle cx="10.621" cy="10.621" r="10.621" stroke="none"/><circle cx="10.621" cy="10.621" r="9.621" fill="none"/></g></g><g transform="translate(1684.773 495.189)" fill="none"><path d="M2.317,0A2.317,2.317,0,1,1,0,2.317,2.317,2.317,0,0,1,2.317,0Z" stroke="none"/><path d="M 2.317416906356812 0.4999971389770508 C 1.315286874771118 0.4999971389770508 0.4999971389770508 1.315286874771118 0.4999971389770508 2.317416906356812 C 0.4999971389770508 3.319546937942505 1.315286874771118 4.13483715057373 2.317416906356812 4.13483715057373 C 3.319546937942505 4.13483715057373 4.13483715057373 3.319546937942505 4.13483715057373 2.317416906356812 C 4.13483715057373 1.315286874771118 3.319546937942505 0.4999971389770508 2.317416906356812 0.4999971389770508 M 2.317416906356812 -2.86102294921875e-06 C 3.597286939620972 -2.86102294921875e-06 4.634836673736572 1.037546873092651 4.634836673736572 2.317416906356812 C 4.634836673736572 3.597286939620972 3.597286939620972 4.634836673736572 2.317416906356812 4.634836673736572 C 1.037546873092651 4.634836673736572 -2.86102294921875e-06 3.597286939620972 -2.86102294921875e-06 2.317416906356812 C -2.86102294921875e-06 1.037546873092651 1.037546873092651 -2.86102294921875e-06 2.317416906356812 -2.86102294921875e-06 Z" stroke="none" fill="#fff"/></g></g></g></svg>