<svg xmlns="http://www.w3.org/2000/svg" width="700" height="350" viewBox="0 0 700 350">
  <g id="Groupe_11" data-name="Groupe 11" transform="translate(-539 -365)">
    <g id="default_event" transform="translate(-74 -147)">
      <rect id="Rectangle_3" data-name="Rectangle 3" width="700" height="350" transform="translate(613 512)" fill="#b3b6b8"/>
      <g id="Groupe_7" data-name="Groupe 7" transform="translate(-729 173)">
        <g id="Groupe_6" data-name="Groupe 6" transform="translate(1638 485)">
          <g id="Groupe_5" data-name="Groupe 5">
            <path id="Tracé_6" data-name="Tracé 6" d="M8,58.531a8,8,0,0,1-8-8V15.719a8,8,0,0,1,8-8H32.165A8,8,0,0,1,40.16,0H69.826a8,8,0,0,1,8,7.718H100.7a8,8,0,0,1,8,8V50.531a8,8,0,0,1-8,8Z" fill="none"/>
            <path id="Tracé_7" data-name="Tracé 7" d="M100.7,55.531a5.006,5.006,0,0,0,5-5V15.719a5.006,5.006,0,0,0-5-5H77.821a3,3,0,0,1-3-2.9,5,5,0,0,0-5-4.822H40.16a5,5,0,0,0-5,4.822,3,3,0,0,1-3,2.9H8a5.006,5.006,0,0,0-5,5V50.53a5.006,5.006,0,0,0,5,5h92.7m0,3H8a8,8,0,0,1-8-8V15.719a8,8,0,0,1,8-8H32.165A8,8,0,0,1,40.16,0H69.826a8,8,0,0,1,8,7.718H100.7a8,8,0,0,1,8,8V50.53A8,8,0,0,1,100.7,58.531Z" fill="#fff"/>
          </g>
          <g id="Ellipse_4" data-name="Ellipse 4" transform="translate(36.662 15.437)" fill="none" stroke="#fff" stroke-width="4">
            <circle cx="17.688" cy="17.688" r="17.688" stroke="none"/>
            <circle cx="17.688" cy="17.688" r="15.688" fill="none"/>
          </g>
        </g>
        <g id="Tracé_8" data-name="Tracé 8" transform="translate(1721.59 498.793)" fill="none">
          <path d="M6.444,0A6.444,6.444,0,1,1,0,6.444,6.444,6.444,0,0,1,6.444,0Z" stroke="none"/>
          <path d="M 6.443991661071777 3.000001907348633 C 4.544971466064453 3.000001907348633 3.000001907348633 4.544971466064453 3.000001907348633 6.443991661071777 C 3.000001907348633 8.343011856079102 4.544971466064453 9.887981414794922 6.443991661071777 9.887981414794922 C 8.343011856079102 9.887981414794922 9.887981414794922 8.343011856079102 9.887981414794922 6.443991661071777 C 9.887981414794922 4.544971466064453 8.343011856079102 3.000001907348633 6.443991661071777 3.000001907348633 M 6.443991661071777 1.9073486328125e-06 C 10.00291156768799 1.9073486328125e-06 12.88798141479492 2.885071754455566 12.88798141479492 6.443991661071777 C 12.88798141479492 10.00291156768799 10.00291156768799 12.88798141479492 6.443991661071777 12.88798141479492 C 2.885071754455566 12.88798141479492 1.9073486328125e-06 10.00291156768799 1.9073486328125e-06 6.443991661071777 C 1.9073486328125e-06 2.885071754455566 2.885071754455566 1.9073486328125e-06 6.443991661071777 1.9073486328125e-06 Z" stroke="none" fill="#fff"/>
        </g>
        <line id="Ligne_3" data-name="Ligne 3" y2="14" transform="translate(1692.5 511.5)" fill="none" stroke="#fff" stroke-linecap="round" stroke-width="2"/>
        <line id="Ligne_4" data-name="Ligne 4" x2="14" transform="translate(1685.5 518.5)" fill="none" stroke="#fff" stroke-linecap="round" stroke-width="2"/>
      </g>
    </g>
  </g>
</svg>
