<svg xmlns="http://www.w3.org/2000/svg" width="34.376" height="45.314" viewBox="0 0 34.376 45.314"><g transform="translate(-5 -2)"><g transform="translate(5 2)"><path d="M19.074,44.189H8.121A3.126,3.126,0,0,1,5,41.053V5.137A3.137,3.137,0,0,1,8.138,2H23.751v9.378A3.12,3.12,0,0,0,26.885,14.5h7.8V36.266L29.22,27,19.074,44.189ZM25.313,2v9.371a1.565,1.565,0,0,0,1.548,1.567h7.827L25.313,2ZM29.22,30.126,39.376,47.314H19.063L29.22,30.126Zm-.781,6.25v4.688H30V36.376Zm0,6.25v1.563H30V42.627Z" transform="translate(-5 -2)" fill="#4f96d5" fill-rule="evenodd"/></g></g></svg>