<svg xmlns="http://www.w3.org/2000/svg" width="28.959" height="27.135" viewBox="0 0 28.959 27.135">
  <g id="Groupe_9" data-name="Groupe 9" transform="translate(-1417.5 -223.5)">
    <g id="iconfinder_house_384890" transform="translate(1419 225)">
      <g id="Groupe_8" data-name="Groupe 8" transform="translate(0 0)">
        <path id="Tracé_10" data-name="Tracé 10" d="M23.747,35.973l13.077-9.4,12.881,9.4" transform="translate(-23.747 -26.575)" fill="none" stroke="#231f20" stroke-linecap="round" stroke-linejoin="round" stroke-miterlimit="10" stroke-width="3"/>
        <path id="Tracé_13" data-name="Tracé 13" d="M51.646,51.735V65.557a2.2,2.2,0,0,1-2.2,2.2H32.083c-1.215,0-2.873-.985-2.873-2.2v-13.8" transform="translate(-27.448 -43.622)" fill="none" stroke="#231f20" stroke-linecap="round" stroke-linejoin="round" stroke-miterlimit="10" stroke-width="3"/>
      </g>
    </g>
    <g id="Tracé_14" data-name="Tracé 14" transform="translate(1426.206 231.239)" fill="#fff">
      <path d="M 5.885073661804199 10.27014350891113 C 3.467133760452271 10.27014350891113 1.500003695487976 8.303013801574707 1.500003695487976 5.885073661804199 C 1.500003695487976 3.467133760452271 3.467133760452271 1.500003695487976 5.885073661804199 1.500003695487976 C 8.303013801574707 1.500003695487976 10.27014350891113 3.467133760452271 10.27014350891113 5.885073661804199 C 10.27014350891113 8.303013801574707 8.303013801574707 10.27014350891113 5.885073661804199 10.27014350891113 Z" stroke="none"/>
      <path d="M 5.885073661804199 3.000003814697266 C 4.294243812561035 3.000003814697266 3.000003814697266 4.294243812561035 3.000003814697266 5.885073661804199 C 3.000003814697266 7.475903511047363 4.294243812561035 8.770143508911133 5.885073661804199 8.770143508911133 C 7.475903511047363 8.770143508911133 8.770143508911133 7.475903511047363 8.770143508911133 5.885073661804199 C 8.770143508911133 4.294243812561035 7.475903511047363 3.000003814697266 5.885073661804199 3.000003814697266 M 5.885073661804199 3.814697265625e-06 C 9.135313987731934 3.814697265625e-06 11.77014350891113 2.634833335876465 11.77014350891113 5.885073661804199 C 11.77014350891113 9.135313987731934 9.135313987731934 11.77014350891113 5.885073661804199 11.77014350891113 C 2.634833335876465 11.77014350891113 3.814697265625e-06 9.135313987731934 3.814697265625e-06 5.885073661804199 C 3.814697265625e-06 2.634833335876465 2.634833335876465 3.814697265625e-06 5.885073661804199 3.814697265625e-06 Z" stroke="none" fill="#231f20"/>
    </g>
  </g>
</svg>
